<svg width="16" height="17" viewBox="0 0 16 17" fill="none" xmlns="http://www.w3.org/2000/svg">
<path d="M8.01666 16.1083C6.07499 16.1083 4.13333 15.8 2.29166 15.1833C1.59166 14.9417 1.05833 14.45 0.824993 13.8083C0.583326 13.1667 0.666659 12.4583 1.04999 11.825L2.00833 10.2333C2.20833 9.90002 2.39166 9.23335 2.39166 8.84168V6.43335C2.39166 3.33335 4.91666 0.80835 8.01666 0.80835C11.1167 0.80835 13.6417 3.33335 13.6417 6.43335V8.84168C13.6417 9.22502 13.825 9.90002 14.025 10.2417L14.975 11.825C15.3333 12.425 15.4 13.15 15.1583 13.8083C14.9167 14.4667 14.3917 14.9667 13.7333 15.1833C11.9 15.8 9.95833 16.1083 8.01666 16.1083ZM8.01666 2.05835C5.60833 2.05835 3.64166 4.01668 3.64166 6.43335V8.84168C3.64166 9.45002 3.39166 10.35 3.08333 10.875L2.12499 12.4667C1.94166 12.775 1.89166 13.1 1.99999 13.375C2.09999 13.6583 2.34999 13.875 2.69166 13.9917C6.17499 15.1583 9.86666 15.1583 13.35 13.9917C13.65 13.8917 13.8833 13.6667 13.9917 13.3667C14.1 13.0667 14.075 12.7417 13.9083 12.4667L12.95 10.875C12.6333 10.3333 12.3917 9.44168 12.3917 8.83335V6.43335C12.3917 4.01668 10.4333 2.05835 8.01666 2.05835Z" fill="#1B5E37"/>
</svg>
