<svg width="14" height="14" viewBox="0 0 14 14" fill="none" xmlns="http://www.w3.org/2000/svg">
<path d="M7.04673 13.6535C6.10673 13.6535 5.16006 13.2935 4.44673 12.5801L1.42673 9.56012C0.693392 8.82678 0.306726 7.81345 0.353392 6.78012L0.513392 3.44678C0.586726 1.85345 1.84673 0.59345 3.44673 0.51345L6.78006 0.35345C7.81339 0.31345 8.82673 0.69345 9.56006 1.42678L12.5801 4.44678C14.0134 5.88012 14.0134 8.22012 12.5801 9.65345L9.65339 12.5801C8.93339 13.2935 7.99339 13.6535 7.04673 13.6535ZM2.13339 8.84678L5.15339 11.8668C5.66006 12.3735 6.33339 12.6535 7.04673 12.6535C7.76006 12.6535 8.43339 12.3735 8.94006 11.8668L11.8667 8.94012C12.3734 8.43345 12.6534 7.76012 12.6534 7.04678C12.6534 6.33345 12.3734 5.66012 11.8667 5.15345L8.84673 2.13345C8.31339 1.60012 7.57339 1.31345 6.82673 1.35345L3.49339 1.51345C2.40673 1.56012 1.56006 2.40678 1.50673 3.48678L1.34673 6.82012C1.31339 7.57345 1.60006 8.31345 2.13339 8.84678Z" fill="#181001"/>
</svg>
